<svg width="1062" height="798" viewBox="0 0 1062 798" fill="none" xmlns="http://www.w3.org/2000/svg">
<g clip-path="url(#clip0)">
<path d="M989.038 327.877H0V798H989.038V327.877Z" fill="#00BFA6" fill-opacity="0.7"/>
<path d="M825.528 518.324H163.51V798H825.528V518.324Z" fill="#F0F0F0"/>
<path d="M825.528 535.389H163.51V538.053H825.528V535.389Z" fill="#3F3D56"/>
<path d="M175.444 532.385C178.073 532.385 180.205 530.249 180.205 527.615C180.205 524.981 178.073 522.846 175.444 522.846C172.814 522.846 170.683 524.981 170.683 527.615C170.683 530.249 172.814 532.385 175.444 532.385Z" fill="#3F3D56"/>
<path d="M191.767 532.385C194.396 532.385 196.528 530.249 196.528 527.615C196.528 524.981 194.396 522.846 191.767 522.846C189.137 522.846 187.006 524.981 187.006 527.615C187.006 530.249 189.137 532.385 191.767 532.385Z" fill="#3F3D56"/>
<path d="M208.09 532.385C210.719 532.385 212.851 530.249 212.851 527.615C212.851 524.981 210.719 522.846 208.09 522.846C205.461 522.846 203.329 524.981 203.329 527.615C203.329 530.249 205.461 532.385 208.09 532.385Z" fill="#3F3D56"/>
<path d="M514.808 638L521.856 652.308L537.615 654.601L526.212 665.738L528.903 681.463L514.808 674.038L500.712 681.463L503.403 665.738L492 654.601L507.76 652.308L514.808 638Z" fill="#00BFA6"/>
<path d="M571.808 640L578.856 654.308L594.615 656.601L583.211 667.738L585.904 683.463L571.808 676.038L557.712 683.463L560.403 667.738L549 656.601L564.76 654.308L571.808 640Z" fill="#00BFA6"/>
<path d="M628.808 640L635.856 654.308L651.615 656.601L640.211 667.738L642.903 683.463L628.808 676.038L614.712 683.463L617.403 667.738L606 656.601L621.76 654.308L628.808 640Z" fill="#00BFA6"/>
<path d="M685.808 640L692.856 654.308L708.615 656.601L697.211 667.738L699.903 683.463L685.808 676.038L671.712 683.463L674.403 667.738L663 656.601L678.76 654.308L685.808 640Z" fill="#00BFA6"/>
<path d="M742.808 640L749.856 654.308L765.615 656.601L754.211 667.738L756.903 683.463L742.808 676.038L728.711 683.463L731.403 667.738L720 656.601L735.76 654.308L742.808 640Z" fill="#00BFA6"/>
<path opacity="0.1" d="M261.298 327.877L0 507.589V415.523L127.432 327.877H261.298Z" fill="black"/>
<path opacity="0.1" d="M558.474 327.877L0 711.98V619.899L424.608 327.877H558.474Z" fill="black"/>
<path d="M151.073 461.911L133.173 442.685L152.364 424.752L170.264 443.978L151.073 461.911ZM136.026 442.784L151.172 459.052L167.41 443.879L152.264 427.61L136.026 442.784Z" fill="#F0F0F0"/>
<path d="M741.779 449.818H715.536V423.527H741.779V449.818ZM717.554 447.796H739.76V425.549H717.554V447.796Z" fill="#3F3D56"/>
<path d="M904.372 674.19C911.771 674.19 917.77 668.18 917.77 660.767C917.77 653.354 911.771 647.345 904.372 647.345C896.972 647.345 890.974 653.354 890.974 660.767C890.974 668.18 896.972 674.19 904.372 674.19Z" fill="#F0F0F0"/>
<path d="M904.372 699.544C896.717 699.544 889.233 697.269 882.868 693.009C876.503 688.748 871.542 682.692 868.613 675.606C865.683 668.521 864.917 660.724 866.41 653.202C867.904 645.68 871.59 638.771 877.003 633.348C882.416 627.925 889.313 624.232 896.821 622.736C904.329 621.24 912.111 622.008 919.184 624.942C926.256 627.877 932.301 632.847 936.554 639.224C940.807 645.601 943.077 653.098 943.077 660.767C943.066 671.048 938.984 680.904 931.728 688.174C924.472 695.443 914.634 699.532 904.372 699.544ZM904.372 624.974C897.305 624.974 890.398 627.073 884.522 631.006C878.647 634.939 874.068 640.529 871.363 647.07C868.659 653.61 867.952 660.807 869.33 667.75C870.709 674.694 874.112 681.071 879.108 686.077C884.105 691.083 890.471 694.492 897.402 695.873C904.332 697.254 911.516 696.545 918.044 693.836C924.573 691.127 930.153 686.539 934.079 680.653C938.004 674.767 940.1 667.847 940.1 660.767C940.089 651.278 936.321 642.18 929.623 635.469C922.925 628.759 913.844 624.985 904.372 624.974Z" fill="#2F2E41"/>
<path d="M858.315 25.3805H753.939V147.207H858.315V25.3805Z" fill="#F2F2F2"/>
<path d="M822.828 329.284L821.378 327.866C828.048 320.289 833.104 311.428 836.236 301.825C841.167 286.959 843.575 263.481 827.047 236.056C810.136 207.995 809.375 185.204 811.714 171.026C814.26 155.598 820.754 146.95 821.029 146.59L822.64 147.823C822.575 147.908 816.137 156.509 813.694 171.477C811.439 185.295 812.225 207.534 828.782 235.006C845.733 263.132 843.221 287.262 838.13 302.551C832.614 319.117 823.225 328.877 822.828 329.284Z" fill="#3F3D56"/>
<path d="M898.849 148.222H752.926V2.0304H898.849V148.222ZM754.952 146.191H896.823V4.06083H754.952V146.191Z" fill="#3F3D56"/>
<path d="M872.502 44.6696H783.326V46.7H872.502V44.6696Z" fill="#3F3D56"/>
<path d="M872.502 67.0044H783.326V69.0348H872.502V67.0044Z" fill="#3F3D56"/>
<path d="M872.502 89.3392H783.326V91.3697H872.502V89.3392Z" fill="#3F3D56"/>
<path d="M1021.47 113.704H917.09V235.531H1021.47V113.704Z" fill="#F2F2F2"/>
<path d="M985.979 417.608L984.528 416.19C991.199 408.613 996.255 399.752 999.386 390.149C1004.32 375.283 1006.73 351.805 990.197 324.38C973.287 296.319 972.526 273.528 974.864 259.35C977.41 243.922 983.905 235.274 984.18 234.914L985.79 236.147C985.725 236.232 979.288 244.833 976.845 259.801C974.589 273.619 975.376 295.858 991.932 323.33C1008.88 351.456 1006.37 375.586 1001.28 390.876C995.764 407.441 986.376 417.201 985.979 417.608Z" fill="#3F3D56"/>
<path d="M1062 236.546H916.076V90.3545H1062V236.546ZM918.103 234.516H1059.97V92.3849H918.103V234.516Z" fill="#3F3D56"/>
<path d="M1035.65 132.994H946.477V135.024H1035.65V132.994Z" fill="#3F3D56"/>
<path d="M1035.65 155.328H946.477V157.359H1035.65V155.328Z" fill="#3F3D56"/>
<path d="M1035.65 177.663H946.477V179.694H1035.65V177.663Z" fill="#3F3D56"/>
<path d="M245.233 23.35H140.857V145.176H245.233V23.35Z" fill="#F2F2F2"/>
<path d="M209.746 327.254L208.296 325.836C214.966 318.259 220.022 309.397 223.154 299.794C228.084 284.928 230.493 261.451 213.965 234.025C197.054 205.965 196.293 183.174 198.632 168.995C201.177 153.568 207.672 144.92 207.947 144.56L209.557 145.792C209.493 145.877 203.055 154.479 200.612 169.446C198.357 183.265 199.143 205.504 215.699 232.975C232.65 261.102 230.139 285.232 225.048 300.521C219.532 317.087 210.143 326.846 209.746 327.254Z" fill="#3F3D56"/>
<path d="M285.767 146.191H139.844V0H285.767V146.191ZM141.87 144.161H283.74V2.03044H141.87V144.161Z" fill="#3F3D56"/>
<path d="M259.42 42.6392H170.244V44.6696H259.42V42.6392Z" fill="#3F3D56"/>
<path d="M259.42 64.974H170.244V67.0044H259.42V64.974Z" fill="#3F3D56"/>
<path d="M259.42 87.3088H170.244V89.3393H259.42V87.3088Z" fill="#3F3D56"/>
<path d="M475.732 371.731L482.78 386.039L498.54 388.332L487.136 399.469L489.828 415.194L475.732 407.77L461.636 415.194L464.328 399.469L452.925 388.332L468.685 386.039L475.732 371.731Z" fill="#F0F0F0"/>
<path d="M501.21 49.1476H501.21C525.563 49.1476 545.305 71.0971 545.305 98.1732V132.574H534.745L528.631 119.828L530.159 132.574H462.279L456.721 120.987L458.111 132.574H450.468V105.563C450.468 74.4057 473.186 49.1476 501.21 49.1476Z" fill="#2F2E41"/>
<path d="M551.735 273.902L578.809 285.43L672.891 362.054C676.351 366.313 678.471 371.505 678.983 376.972C679.66 385.787 708.088 431.898 697.935 438C687.782 444.103 651.232 462.412 649.202 450.206C647.171 438 636.341 385.787 636.341 385.787L545.644 304.416L551.735 273.902Z" fill="#2F2E41"/>
<path d="M658.001 440.035L669.507 473.939C669.507 473.939 657.324 486.823 663.415 497.672V534.967H672.891L675.599 515.303C675.599 515.303 686.392 534.719 691.843 534.967C703.271 535.488 725.901 539.561 726.578 533.458C727.255 527.355 709.441 521.406 709.441 521.406L690.489 469.193L682.367 437.322L658.001 440.035Z" fill="#2F2E41"/>
<path d="M481.343 265.087C481.343 265.087 475.251 324.759 492.849 335.608C510.447 346.458 588.285 381.041 588.285 381.041C588.285 381.041 555.12 412.233 561.888 419.692C568.657 427.151 599.115 447.494 603.176 443.425C607.237 439.356 652.586 390.534 647.171 374.938C641.756 359.342 566.626 308.485 566.626 308.485L557.827 276.614L555.12 250.847L526.692 232.538L481.343 265.087Z" fill="#2F2E41"/>
<path d="M512.353 126.155C527.936 126.155 540.569 113.499 540.569 97.8867C540.569 82.2744 527.936 69.6182 512.353 69.6182C496.769 69.6182 484.136 82.2744 484.136 97.8867C484.136 113.499 496.769 126.155 512.353 126.155Z" fill="#FFB9B9"/>
<path d="M490.48 109.465C490.48 109.465 491.834 135.232 470.852 143.369C449.869 151.506 522.969 204.398 522.969 204.398V145.404C522.969 145.404 513.493 135.232 522.969 119.636L490.48 109.465Z" fill="#FFB9B9"/>
<path d="M445.47 230.504L450.885 256.95L467.129 347.814C467.129 347.814 453.592 386.465 471.867 385.787C490.142 385.109 481.343 343.746 481.343 343.746L471.867 268.477V239.319L445.47 230.504Z" fill="#FFB9B9"/>
<path d="M561.888 217.62L567.98 241.354L595.73 308.485C595.73 308.485 614.682 340.355 599.115 339.677C583.547 338.999 583.547 308.485 583.547 308.485L551.735 254.237V223.723L561.888 217.62Z" fill="#FFB9B9"/>
<path d="M566.626 415.623L544.29 436.644C544.29 436.644 528.722 433.254 522.631 451.562C516.539 469.871 512.478 481.398 512.478 481.398L520.6 486.145L530.753 471.905C530.753 471.905 536.845 497.672 542.936 499.707C549.028 501.741 579.486 515.303 576.779 499.707L561.888 478.008C561.888 478.008 559.857 453.596 565.949 451.562C572.041 449.528 588.285 429.185 588.285 429.185L566.626 415.623Z" fill="#2F2E41"/>
<path d="M480.27 286.108C480.27 286.108 543.894 263.053 547.955 265.087C550.978 266.425 554.198 267.262 557.488 267.566L557.431 258.306C557.431 258.306 536.448 250.847 524.942 255.594C513.436 260.34 478.239 281.361 478.239 281.361L480.27 286.108Z" fill="#3F3D56"/>
<path d="M518.908 190.836C518.908 190.836 500.633 169.815 495.218 156.931C491.792 149.121 485.504 142.926 477.651 139.626C477.651 139.626 437.009 148.794 437.686 165.068C438.363 181.343 463.406 206.432 463.406 206.432C463.406 206.432 460.022 296.618 478.297 295.262C482.239 290.549 485.021 284.975 486.419 278.988C488.45 269.494 551.397 259.323 551.397 259.323C551.397 259.323 556.812 268.816 557.489 264.748C558.165 260.679 552.074 161 552.074 161L519.797 139.626L518.908 190.836Z" fill="#D0CDE1"/>
<path d="M442.9 158.518L442.447 158.772C441 159.586 439.796 160.77 438.958 162.204C438.12 163.638 437.678 165.27 437.678 166.932L437.685 217.255C437.68 218.623 437.378 219.974 436.8 221.213C436.222 222.452 435.382 223.55 434.337 224.432C431.73 226.653 429.312 229.855 434.302 231.521C442.424 234.234 474.236 247.796 474.913 243.049C475.59 238.302 476.943 232.877 474.913 232.877C473.323 232.877 463.852 184.253 456.241 163.463C455.776 162.19 455.041 161.033 454.086 160.073C453.131 159.113 451.98 158.372 450.711 157.902C449.442 157.432 448.087 157.243 446.738 157.35C445.389 157.456 444.08 157.854 442.9 158.518V158.518Z" fill="#D0CDE1"/>
<path d="M542.936 158.626L552.412 161.339L563.242 208.127C563.242 208.127 576.102 210.84 572.041 215.586C567.98 220.333 551.058 232.539 551.058 232.539L542.936 158.626Z" fill="#D0CDE1"/>
<path d="M488.675 62.6526C490.797 59.798 493.546 57.4715 496.711 55.8537C499.875 54.2359 503.369 53.3703 506.922 53.324H507.787C524.479 53.324 538.01 68.4557 538.01 87.1216V87.1217H532.417L531.514 80.2339L530.19 87.1217H497.018L494.239 81.2945L494.934 87.1217H488.408C485.363 102.272 489.738 117.423 501.534 132.574H490.418L484.86 120.919L486.249 132.574H465.059L460.89 105.769C460.89 85.694 472.532 68.6712 488.675 62.6526Z" fill="#2F2E41"/>
<g clip-path="url(#clip1)">
<path d="M386.114 662.117L366.365 659.597C358.666 651.205 347.323 648.45 337.175 652.507C325.45 657.392 317.883 670.1 318.422 684H257.624C255.461 684.02 253.446 685.227 252.242 687.223C250.92 689.354 250.633 692.073 251.474 694.487C255.602 706.257 267.698 732.617 293.993 735.98C287.022 745.12 278.479 752.621 268.865 758.043C266.262 759.536 264.845 762.746 265.376 765.947C265.801 769.128 268.05 771.624 270.914 772.093C278.247 773.338 285.654 773.975 293.072 774C309.872 774 329.648 770.46 344.765 757.2C358.073 745.533 365.822 728.03 367.817 704.883C371.082 700.805 373.364 695.874 374.45 690.55L389.771 675.163C391.767 673.176 392.513 670.063 391.67 667.237C390.896 664.456 388.716 662.447 386.114 662.117ZM385.748 670.217L369.704 686.333C369.221 686.819 368.894 687.466 368.771 688.177C367.94 693.05 365.856 697.552 362.771 701.137C362.296 701.704 362.005 702.431 361.946 703.203C360.311 724.837 353.279 741.243 341.051 751.97C320.084 770.357 288.671 768.333 271.814 765.5C271.517 765.448 271.297 765.167 271.292 764.833C271.207 764.48 271.353 764.109 271.643 763.937C293.351 751.337 301.895 735.337 302.243 734.663C302.778 733.633 302.779 732.364 302.244 731.333C301.71 730.302 300.722 729.666 299.651 729.663C273.11 729.663 261.023 703.367 257.051 692.06C256.936 691.697 256.985 691.296 257.183 690.98C257.268 690.798 257.428 690.673 257.612 690.647H321.707C322.597 690.647 323.44 690.208 324.011 689.449C324.581 688.69 324.818 687.689 324.659 686.717C324.506 685.794 324.427 684.858 324.422 683.92C323.913 672.885 329.854 662.739 339.14 658.783C347.442 655.45 356.733 657.909 362.792 665.043C363.277 665.613 363.927 665.974 364.628 666.063L385.427 668.73C385.687 668.766 385.898 668.979 385.955 669.263C386.071 669.598 385.988 669.978 385.748 670.217Z" fill="#3F3D56"/>
<path d="M386.114 662.117L366.365 659.597C358.666 651.205 347.323 648.45 337.175 652.507C325.45 657.392 317.883 670.1 318.422 684H257.624C255.461 684.02 253.446 685.227 252.242 687.223C250.92 689.354 250.633 692.073 251.474 694.487C255.602 706.257 267.698 732.617 293.993 735.98C287.022 745.12 278.479 752.621 268.865 758.043C266.262 759.536 264.845 762.746 265.376 765.947C265.801 769.128 268.05 771.624 270.914 772.093C278.247 773.338 285.654 773.975 293.072 774C309.872 774 329.648 770.46 344.765 757.2C358.073 745.533 365.822 728.03 367.817 704.883C371.082 700.805 373.364 695.874 374.45 690.55L389.771 675.163C391.767 673.176 392.513 670.063 391.67 667.237C390.896 664.456 388.716 662.447 386.114 662.117ZM385.748 670.217L369.704 686.333C369.221 686.819 368.894 687.466 368.771 688.177C367.94 693.05 365.856 697.552 362.771 701.137C362.296 701.704 362.005 702.431 361.946 703.203C360.311 724.837 353.279 741.243 341.051 751.97C320.084 770.357 288.671 768.333 271.814 765.5C271.517 765.448 271.297 765.167 271.292 764.833C271.207 764.48 271.353 764.109 271.643 763.937C293.351 751.337 301.895 735.337 302.243 734.663C302.778 733.633 302.779 732.364 302.244 731.333C301.71 730.302 300.722 729.666 299.651 729.663C273.11 729.663 261.023 703.367 257.051 692.06C256.936 691.697 256.985 691.296 257.183 690.98C257.268 690.798 257.428 690.673 257.612 690.647H321.707C322.597 690.647 323.44 690.208 324.011 689.449C324.581 688.69 324.818 687.689 324.659 686.717C324.506 685.794 324.427 684.858 324.422 683.92C323.913 672.885 329.854 662.739 339.14 658.783C347.442 655.45 356.733 657.909 362.792 665.043C363.277 665.613 363.927 665.974 364.628 666.063L385.427 668.73C385.687 668.766 385.898 668.979 385.955 669.263C386.071 669.598 385.988 669.978 385.748 670.217Z" stroke="black"/>
<path d="M419 574H263C256.373 574 251 579.97 251 587.333V630.667C251 638.03 256.373 644 263 644H391.373L399.887 665.27C400.609 667.077 402.221 668.241 404 668.241C405.779 668.241 407.391 667.077 408.113 665.27L416.627 644H419C425.627 644 431 638.03 431 630.667V587.333C431 579.97 425.627 574 419 574ZM425 630.667C425 634.349 422.314 637.333 419 637.333H414.68C413.495 637.333 412.42 638.107 411.938 639.31L404 659.137L396.062 639.31C395.58 638.107 394.505 637.333 393.32 637.333H263C259.686 637.333 257 634.349 257 630.667V587.333C257 583.651 259.686 580.667 263 580.667H419C422.314 580.667 425 583.651 425 587.333V630.667Z" fill="#3F3D56"/>
<path d="M419 574H263C256.373 574 251 579.97 251 587.333V630.667C251 638.03 256.373 644 263 644H391.373L399.887 665.27C400.609 667.077 402.221 668.241 404 668.241C405.779 668.241 407.391 667.077 408.113 665.27L416.627 644H419C425.627 644 431 638.03 431 630.667V587.333C431 579.97 425.627 574 419 574ZM425 630.667C425 634.349 422.314 637.333 419 637.333H414.68C413.495 637.333 412.42 638.107 411.938 639.31L404 659.137L396.062 639.31C395.58 638.107 394.505 637.333 393.32 637.333H263C259.686 637.333 257 634.349 257 630.667V587.333C257 583.651 259.686 580.667 263 580.667H419C422.314 580.667 425 583.651 425 587.333V630.667Z" stroke="black"/>
<path d="M329 694C327.343 694 326 695.492 326 697.333C326 697.547 325.787 718.927 312.455 727.813C311.515 728.415 310.941 729.534 310.954 730.739C310.966 731.944 311.563 733.048 312.515 733.626C313.467 734.204 314.625 734.166 315.545 733.527C331.814 722.667 332 698.363 332 697.333C332 695.492 330.657 694 329 694Z" fill="#3F3D56"/>
<path d="M329 694C327.343 694 326 695.492 326 697.333C326 697.547 325.787 718.927 312.455 727.813C311.515 728.415 310.941 729.534 310.954 730.739C310.966 731.944 311.563 733.048 312.515 733.626C313.467 734.204 314.625 734.166 315.545 733.527C331.814 722.667 332 698.363 332 697.333C332 695.492 330.657 694 329 694Z" stroke="black"/>
<path d="M272 597.333H284C285.657 597.333 287 595.841 287 594C287 592.159 285.657 590.667 284 590.667H272C270.343 590.667 269 592.159 269 594C269 595.841 270.343 597.333 272 597.333Z" fill="#3F3D56"/>
<path d="M272 597.333H284C285.657 597.333 287 595.841 287 594C287 592.159 285.657 590.667 284 590.667H272C270.343 590.667 269 592.159 269 594C269 595.841 270.343 597.333 272 597.333Z" stroke="black"/>
<path d="M296 597.333H335C336.657 597.333 338 595.841 338 594C338 592.159 336.657 590.667 335 590.667H296C294.343 590.667 293 592.159 293 594C293 595.841 294.343 597.333 296 597.333Z" fill="#3F3D56"/>
<path d="M296 597.333H335C336.657 597.333 338 595.841 338 594C338 592.159 336.657 590.667 335 590.667H296C294.343 590.667 293 592.159 293 594C293 595.841 294.343 597.333 296 597.333Z" stroke="black"/>
<path d="M383 590.667H347C345.343 590.667 344 592.159 344 594C344 595.841 345.343 597.333 347 597.333H383C384.657 597.333 386 595.841 386 594C386 592.159 384.657 590.667 383 590.667Z" fill="#3F3D56"/>
<path d="M383 590.667H347C345.343 590.667 344 592.159 344 594C344 595.841 345.343 597.333 347 597.333H383C384.657 597.333 386 595.841 386 594C386 592.159 384.657 590.667 383 590.667Z" stroke="black"/>
<path d="M305 607.333H272C270.343 607.333 269 608.826 269 610.667C269 612.508 270.343 614 272 614H305C306.657 614 308 612.508 308 610.667C308 608.826 306.657 607.333 305 607.333Z" fill="#3F3D56"/>
<path d="M305 607.333H272C270.343 607.333 269 608.826 269 610.667C269 612.508 270.343 614 272 614H305C306.657 614 308 612.508 308 610.667C308 608.826 306.657 607.333 305 607.333Z" stroke="black"/>
<path d="M362 607.333H320C318.343 607.333 317 608.826 317 610.667C317 612.508 318.343 614 320 614H362C363.657 614 365 612.508 365 610.667C365 608.826 363.657 607.333 362 607.333Z" fill="#3F3D56"/>
<path d="M362 607.333H320C318.343 607.333 317 608.826 317 610.667C317 612.508 318.343 614 320 614H362C363.657 614 365 612.508 365 610.667C365 608.826 363.657 607.333 362 607.333Z" stroke="black"/>
<path d="M404 604C397.373 604 392 609.97 392 617.333C392 624.697 397.373 630.667 404 630.667C410.627 630.667 416 624.697 416 617.333C416 613.797 414.736 610.406 412.485 607.905C410.235 605.405 407.183 604 404 604ZM404 624C400.686 624 398 621.015 398 617.333C398 613.651 400.686 610.667 404 610.667C407.314 610.667 410 613.651 410 617.333C410 621.015 407.314 624 404 624Z" fill="#00BFA6"/>
<path d="M404 604C397.373 604 392 609.97 392 617.333C392 624.697 397.373 630.667 404 630.667C410.627 630.667 416 624.697 416 617.333C416 613.797 414.736 610.406 412.485 607.905C410.235 605.405 407.183 604 404 604ZM404 624C400.686 624 398 621.015 398 617.333C398 613.651 400.686 610.667 404 610.667C407.314 610.667 410 613.651 410 617.333C410 621.015 407.314 624 404 624Z" stroke="black"/>
</g>
</g>
<defs>
<clipPath id="clip0">
<rect width="1062" height="798" fill="white"/>
</clipPath>
<clipPath id="clip1">
<rect width="180" height="200" fill="white" transform="translate(251 574)"/>
</clipPath>
</defs>
</svg>
